<svg width="466" height="132" viewBox="0 0 466 132" fill="none" xmlns="http://www.w3.org/2000/svg">
<path d="M-11.1824 26.5216C9.69539 32.8039 25.7582 46.3851 40.9559 61.4632C55.5859 75.9779 70.0816 91.2702 89.0816 100.054C128.251 118.162 174.13 108.681 212.342 92.8291C255.04 75.116 295.108 48.5727 341.334 40.6727C364.001 36.7987 388.283 38.4995 408.097 51.0786C424.515 61.5002 433.462 78.0847 437.244 96.7557C439.392 107.361 440.161 118.144 440.777 128.939L445.727 128.917C445.557 125.856 445.376 122.801 445.15 119.759C443.839 102.084 441.349 83.7229 431.985 68.2963C421.348 50.7744 402.589 39.7035 382.769 35.7385C358.582 30.9003 333.544 35.7301 310.508 43.5018C288.313 50.9897 267.313 61.5071 246.298 71.7437C206.185 91.2811 161.72 111.127 115.952 103.172C105.246 101.311 94.8417 97.8448 85.3395 92.5469C75.9607 87.3175 67.6943 80.4329 59.9019 73.0963C44.6555 58.7404 30.8382 42.4089 12.6588 31.5754C-6.13222 20.3756 -28.7425 15.5103 -50.4808 17.929C-50.5128 17.9322 -50.5457 17.9383 -50.5777 17.9414L-50.5547 23.0094C-37.4035 21.4896 -23.963 22.6766 -11.1824 26.5216Z" fill="#E3F8F4"/>
<path d="M15.7377 101.899C63.6564 119.551 116.263 102.431 151.957 84.959C170.323 75.9695 188.207 65.3212 205.503 55.0245C227.892 41.6957 251.044 27.9124 275.418 17.6296C299.206 7.59146 359.592 -12.438 406.395 18.2548C433.319 35.9107 452.126 68.6246 462.295 115.488C463.252 119.898 464.12 124.361 464.957 128.831L465.973 128.826C465.125 124.288 464.244 119.755 463.272 115.276C453.045 68.1474 434.094 35.2231 406.943 17.4182C359.734 -13.5407 298.965 6.60854 275.029 16.7074C250.592 27.0174 227.409 40.8189 204.991 54.1658C187.712 64.4524 169.846 75.0897 151.517 84.061C115.999 101.448 63.6706 118.495 16.0825 100.96C-0.877087 94.7123 -16.3654 84.3395 -31.3441 74.3084C-37.5891 70.1257 -43.9094 65.9024 -50.3804 61.9428L-50.3751 63.1177C-44.1015 66.9753 -37.9668 71.0784 -31.9003 75.1409C-16.8724 85.2028 -1.33402 95.6093 15.7377 101.899Z" fill="#BFFFF3"/>
</svg>
